# xmcd CD database file
#
# Track frame offsets:
#	150
#	17329
#	30401
#	40502
#	50993
#	64748
#	81203
#	93356
#	109012
#	118258
#	131420
#
# Disc length: 1897 seconds
#
# Revision: 0
# Processed by: cddbd v1.5.2PL0 Copyright (c) Steve Scherf et al.
# Submitted via: CDex 1.51
#
DISCID=8607670b
DTITLE=Various Artist - Country Hits of the '60s and '70s disc 3
DYEAR=2014
DGENRE=Country
TTITLE0=Ray Price - For the Good Times
TTITLE1=Lynn Anderson - Rose Garden
TTITLE2=Charley Pride - Is Anybody Goin' to San Antone
TTITLE3=Jerry Reed - When You're Hot, You're Hot
TTITLE4=Barbara Fairchild - Teddy Bear Song
TTITLE5=Elvis Presley - Always on my Mind
TTITLE6=Barbara Mandrell - The Midnight Oil
TTITLE7=Kris Kristofferson - Why Me
TTITLE8=Dottie West - Country Sunshine
TTITLE9=Charlie Rich - Behind Closed Doors
TTITLE10=Tanya Tucker - Would You Lay With Me (In a Field of Stone)
EXTD=YEAR: 2014
EXTT0=
EXTT1=
EXTT2=
EXTT3=
EXTT4=
EXTT5=
EXTT6=
EXTT7=
EXTT8=
EXTT9=
EXTT10=
PLAYORDER=
